<?xml version="1.0" standalone="no"?><!DOCTYPE svg PUBLIC "-//W3C//DTD SVG 1.1//EN" "http://www.w3.org/Graphics/SVG/1.1/DTD/svg11.dtd"><svg t="1680082415440" class="icon" viewBox="0 0 1024 1024" version="1.1" xmlns="http://www.w3.org/2000/svg" p-id="14011" xmlns:xlink="http://www.w3.org/1999/xlink" width="45" height="45"><path d="M718.4 80c-84.8 0-152 43.2-204.8 112-51.2-68.8-118.4-112-203.2-112C156.8 80 32 216 32 382.4 32 481.6 76.8 552 113.6 608c102.4 163.2 353.6 337.6 364.8 345.6a51.2 51.2 0 0 0 35.2 12.8 56 56 0 0 0 35.2-12.8c11.2-8 262.4-184 366.4-345.6 35.2-56 80-126.4 80-225.6C995.2 216 870.4 80 718.4 80z m140.8 488C761.6 720 513.6 892.8 513.6 892.8S267.2 720 169.6 568C132.8 512 100.8 459.2 100.8 385.6c0-128 96-230.4 212.8-230.4 86.4 0 148.8 56 182.4 136a20.8 20.8 0 0 0 17.6 14.4 20.8 20.8 0 0 0 19.2-14.4c32-80 94.4-137.6 180.8-137.6 118.4 0 212.8 104 212.8 230.4 0 75.2-32 128-67.2 184z m0 0" fill="#727272" p-id="14012"></path></svg>