<?xml version="1.0" standalone="no"?><!DOCTYPE svg PUBLIC "-//W3C//DTD SVG 1.1//EN" "http://www.w3.org/Graphics/SVG/1.1/DTD/svg11.dtd"><svg t="1680082200132" class="icon" viewBox="0 0 1024 1024" version="1.1" xmlns="http://www.w3.org/2000/svg" p-id="13815" xmlns:xlink="http://www.w3.org/1999/xlink" width="45" height="45"><path d="M718.4 80c-84.8 0-152 43.2-203.2 112-52.8-68.8-120-112-204.8-112C156.8 80 32 216 32 382.4 32 481.6 76.8 552 113.6 608c102.4 163.2 353.6 337.6 364.8 345.6a51.2 51.2 0 0 0 35.2 12.8 56 56 0 0 0 35.2-12.8c11.2-8 262.4-184 366.4-345.6 35.2-56 80-126.4 80-225.6C995.2 216 870.4 80 718.4 80z" fill="#e6e6e6" p-id="13816"></path></svg>