<?xml version="1.0" standalone="no"?><!DOCTYPE svg PUBLIC "-//W3C//DTD SVG 1.1//EN" "http://www.w3.org/Graphics/SVG/1.1/DTD/svg11.dtd"><svg t="1680083053501" class="icon" viewBox="0 0 1024 1024" version="1.1" xmlns="http://www.w3.org/2000/svg" p-id="15903" xmlns:xlink="http://www.w3.org/1999/xlink" width="45" height="45"><path d="M768.192 357.248c80.96 0 146.496-64.64 146.496-144.448l-0.192-1.536c0-0.64 0.192-1.088 0.192-1.6 0-79.744-65.536-144.384-146.496-144.384-80.832 0-146.368 64.64-146.368 144.384l0.064 1.792-0.064 1.344c0 11.392 1.792 22.208 4.48 32.64L358.464 419.776a147.072 147.072 0 0 0-102.784-41.6c-80.896 0-146.496 64.576-146.496 144.32 0 0.512 0.192 1.024 0.192 1.6 0 0.576-0.192 1.088-0.192 1.536 0 79.744 65.6 144.448 146.56 144.448a146.56 146.56 0 0 0 108.352-48.064l257.92 186.88a14.592 14.592 0 0 0-0.256 2.368l0.192 1.536-0.192 1.6c0 79.744 65.6 144.384 146.432 144.384 80.896 0 146.496-64.64 146.496-144.384l-0.192-1.6 0.192-1.536c0-79.744-65.6-144.448-146.496-144.448-52.352 0-97.984 27.392-123.84 68.16L398.272 556.608c2.304-9.984 3.84-20.224 3.84-30.976l-0.064-1.408 0.128-1.728c0-13.056-2.496-25.6-5.888-37.568l265.856-173.056a146.56 146.56 0 0 0 106.048 45.376z" p-id="15904" fill="#e6e6e6"></path></svg>